<svg width="36" height="36" viewBox="0 0 36 36" fill="none" xmlns="http://www.w3.org/2000/svg">
<rect width="36" height="36" rx="10" fill="#24666B"/>
<g clip-path="url(#clip0_513_4520)">
<path d="M17.99 8C12.47 8 8 12.48 8 18C8 23.52 12.47 28 17.99 28C23.52 28 28 23.52 28 18C28 12.48 23.52 8 17.99 8ZM18 26C13.58 26 10 22.42 10 18C10 13.58 13.58 10 18 10C22.42 10 26 13.58 26 18C26 22.42 22.42 26 18 26ZM18.5 13H17V19L22.25 22.15L23 20.92L18.5 18.25V13Z" fill="#CBDEF4"/>
</g>
<defs>
<clipPath id="clip0_513_4520">
<rect width="24" height="24" fill="white" transform="translate(6 6)"/>
</clipPath>
</defs>
</svg>
