<svg width="36" height="36" viewBox="0 0 36 36" fill="none" xmlns="http://www.w3.org/2000/svg">
<rect width="36" height="36" rx="10" fill="#24666B"/>
<g clip-path="url(#clip0_513_4526)">
<path d="M17.8 16.9C15.53 16.31 14.8 15.7 14.8 14.75C14.8 13.66 15.81 12.9 17.5 12.9C18.92 12.9 19.63 13.44 19.89 14.3C20.01 14.7 20.34 15 20.76 15H21.06C21.72 15 22.19 14.35 21.96 13.73C21.54 12.55 20.56 11.57 19 11.19V10.5C19 9.67 18.33 9 17.5 9C16.67 9 16 9.67 16 10.5V11.16C14.06 11.58 12.5 12.84 12.5 14.77C12.5 17.08 14.41 18.23 17.2 18.9C19.7 19.5 20.2 20.38 20.2 21.31C20.2 22 19.71 23.1 17.5 23.1C15.85 23.1 15 22.51 14.67 21.67C14.52 21.28 14.18 21 13.77 21H13.49C12.82 21 12.35 21.68 12.6 22.3C13.17 23.69 14.5 24.51 16 24.83V25.5C16 26.33 16.67 27 17.5 27C18.33 27 19 26.33 19 25.5V24.85C20.95 24.48 22.5 23.35 22.5 21.3C22.5 18.46 20.07 17.49 17.8 16.9Z" fill="#CBDEF4"/>
</g>
<defs>
<clipPath id="clip0_513_4526">
<rect width="24" height="24" fill="white" transform="translate(6 6)"/>
</clipPath>
</defs>
</svg>
