<svg width="36" height="36" viewBox="0 0 36 36" fill="none" xmlns="http://www.w3.org/2000/svg">
<rect width="36" height="36" rx="10" fill="#24666B"/>
<g clip-path="url(#clip0_456_3792)">
<path d="M18 8C14.13 8 11 11.13 11 15C11 20.25 18 28 18 28C18 28 25 20.25 25 15C25 11.13 21.87 8 18 8ZM13 15C13 12.24 15.24 10 18 10C20.76 10 23 12.24 23 15C23 17.88 20.12 22.19 18 24.88C15.92 22.21 13 17.85 13 15Z" fill="#CBDEF4"/>
<path d="M18 17.5C19.3807 17.5 20.5 16.3807 20.5 15C20.5 13.6193 19.3807 12.5 18 12.5C16.6193 12.5 15.5 13.6193 15.5 15C15.5 16.3807 16.6193 17.5 18 17.5Z" fill="#CBDEF4"/>
</g>
<defs>
<clipPath id="clip0_456_3792">
<rect width="24" height="24" fill="white" transform="translate(6 6)"/>
</clipPath>
</defs>
</svg>
