<svg width="24" height="24" viewBox="0 0 24 24" fill="none" xmlns="http://www.w3.org/2000/svg">
<path id="check 1" d="M12 0C5.376 0 0 5.376 0 12C0 18.624 5.376 24 12 24C18.624 24 24 18.624 24 12C24 5.376 18.624 0 12 0ZM12 21.6C6.708 21.6 2.4 17.292 2.4 12C2.4 6.708 6.708 2.4 12 2.4C17.292 2.4 21.6 6.708 21.6 12C21.6 17.292 17.292 21.6 12 21.6ZM16.656 7.548L9.6 14.604L7.344 12.348C6.876 11.88 6.12 11.88 5.652 12.348C5.184 12.816 5.184 13.572 5.652 14.04L8.76 17.148C9.228 17.616 9.984 17.616 10.452 17.148L18.36 9.24C18.828 8.772 18.828 8.016 18.36 7.548C17.892 7.08 17.124 7.08 16.656 7.548Z" fill="#0FA958"/>
</svg>
