<svg width="24" height="24" viewBox="0 0 24 24" fill="current" xmlns="http://www.w3.org/2000/svg">
<g clip-path="url(#clip0_596_2810)">
<path d="M2.04637 5H12.7481C13.5825 5 14.0832 5.89 13.6138 6.55L8.44029 14V18H9.48334C10.057 18 10.5264 18.45 10.5264 19C10.5264 19.55 10.057 20 9.48334 20H5.31113C4.73745 20 4.26807 19.55 4.26807 19C4.26807 18.45 4.73745 18 5.31113 18H6.35418V14L1.18063 6.55C0.711256 5.89 1.21192 5 2.04637 5ZM9.58765 9L11.0479 7H3.73611L5.19639 9H9.58765ZM18.8708 5H20.4354C21.3012 5 22 5.67 22 6.5C22 7.33 21.3012 8 20.4354 8H18.8708V17C18.8708 18.84 17.1602 20.28 15.1784 19.95C13.9163 19.74 12.8837 18.75 12.6647 17.54C12.3205 15.64 13.8225 14 15.7417 14C16.1067 14 16.4614 14.06 16.7847 14.17V7C16.7847 5.9 17.7235 5 18.8708 5Z" fill="current"/>
</g>
<defs>
<clipPath id="clip0_596_2810">
<rect width="24" height="24" fill="current"/>
</clipPath>
</defs>
</svg>
